<svg xmlns="http://www.w3.org/2000/svg"  viewBox="0 0 24 24" width="24px" height="24px"><path d="M 10 2 C 5.5876417 2 2 5.5876449 2 10 C 2 14.412355 5.5876417 18 10 18 C 12.023109 18 13.822402 17.181595 15.232422 15.939453 L 20.929688 21.636719 L 21.283203 21.990234 L 21.990234 21.283203 L 21.636719 20.929688 L 15.939453 15.232422 C 17.181594 13.822401 18 12.023108 18 10 C 18 5.5876449 14.412358 2 10 2 z M 10 3 C 13.871919 3 17 6.128084 17 10 C 17 13.871916 13.871919 17 10 17 C 6.1280815 17 3 13.871916 3 10 C 3 6.128084 6.1280815 3 10 3 z"/></svg>